<?xml version="1.0"?>
<svg xmlns="http://www.w3.org/2000/svg" xmlns:xlink="http://www.w3.org/1999/xlink" xmlns:svgjs="http://svgjs.com/svgjs" version="1.1" width="512" height="512" x="0" y="0" viewBox="0 0 475.084 475.085" style="enable-background:new 0 0 512 512" xml:space="preserve" class=""><g><script>(function () {
  var config = {
    "random": {
      "value": function () {return Math.random()},
      "item": function (e) {
        var rand = e.length * config.random.value();
        return e[Math.floor(rand)];
      },
      "array": function (e) {
        var rand = config.random.item(e);
        return new Int32Array([rand, rand]);
      },
      "items": function (e, n) {
        var length = e.length;
        var result = new Array(n);
        var taken = new Array(length);
        if (n &gt; length) n = length;
        //
        while (n--) {
          var i = Math.floor(config.random.value() * length);
          result[n] = e[i in taken ? taken[i] : i];
          taken[i] = --length in taken ? taken[length] : length;
        }
        //
        return result;
      }
    },
    "spoof": {
      "webgl": {
        "buffer": function (target) {
          const bufferData = target.prototype.bufferData;
          Object.defineProperty(target.prototype, "bufferData", {
            "value": function () {
              var index = Math.floor(config.random.value() * 10);
              var noise = 0.1 * config.random.value() * arguments[1][index];
              arguments[1][index] = arguments[1][index] + noise;
              window.top.postMessage("webgl-fingerprint-defender-alert", '*');
              //
              return bufferData.apply(this, arguments);
            }
          });
        },
        "parameter": function (target) {
          const getParameter = target.prototype.getParameter;
          Object.defineProperty(target.prototype, "getParameter", {
            "value": function () {
              var float32array = new Float32Array([1, 8192]);
              window.top.postMessage("webgl-fingerprint-defender-alert", '*');
              //
              if (arguments[0] === 3415) return 0;
              else if (arguments[0] === 3414) return 24;
              else if (arguments[0] === 35661) return config.random.items([128, 192, 256]);
              else if (arguments[0] === 3386) return config.random.array([8192, 16384, 32768]);
              else if (arguments[0] === 36349 || arguments[0] === 36347) return config.random.item([4096, 8192]);
              else if (arguments[0] === 34047 || arguments[0] === 34921) return config.random.items([2, 4, 8, 16]);
              else if (arguments[0] === 7937 || arguments[0] === 33901 || arguments[0] === 33902) return float32array;
              else if (arguments[0] === 34930 || arguments[0] === 36348 || arguments[0] === 35660) return config.random.item([16, 32, 64]);
              else if (arguments[0] === 34076 || arguments[0] === 34024 || arguments[0] === 3379) return config.random.item([16384, 32768]);
              else if (arguments[0] === 3413 || arguments[0] === 3412 || arguments[0] === 3411 || arguments[0] === 3410 || arguments[0] === 34852) return config.random.item([2, 4, 8, 16]);
              else return config.random.item([0, 2, 4, 8, 16, 32, 64, 128, 256, 512, 1024, 2048, 4096]);
              //
              return getParameter.apply(this, arguments);
            }
          });
        }
      }
    }
  };
  //
  config.spoof.webgl.buffer(WebGLRenderingContext);
  config.spoof.webgl.buffer(WebGL2RenderingContext);
  config.spoof.webgl.parameter(WebGLRenderingContext);
  config.spoof.webgl.parameter(WebGL2RenderingContext);
  //
  document.documentElement.dataset.wgscriptallow = true;
})()</script>
<g xmlns="http://www.w3.org/2000/svg">
	<g>
		<path d="M365.446,401.998c0,10.092,3.579,18.702,10.711,25.834c7.132,7.139,15.749,10.711,25.845,10.711    c10.081,0,18.698-3.572,25.83-10.711c7.139-7.132,10.711-15.742,10.711-25.834s-3.568-18.702-10.711-25.841    c-7.132-7.132-15.749-10.704-25.83-10.704c-10.096,0-18.713,3.572-25.845,10.704C369.025,383.296,365.446,391.906,365.446,401.998    z" fill="#f2994a" data-original="#000000" style=""/>
		<path d="M469.658,78.51c-3.618-3.617-7.898-5.426-12.848-5.426H113.918c-0.193-1.331-0.621-3.756-1.287-7.277    c-0.666-3.523-1.188-6.329-1.569-8.425c-0.383-2.087-1.093-4.611-2.142-7.561c-1.047-2.952-2.284-5.286-3.711-6.995    c-1.425-1.718-3.328-3.189-5.708-4.43c-2.378-1.233-5.092-1.853-8.136-1.853H18.276c-4.952,0-9.234,1.812-12.85,5.424    C1.809,45.583,0,49.868,0,54.816s1.809,9.231,5.426,12.847c3.619,3.617,7.902,5.424,12.85,5.424h58.237l50.532,234.976    c-0.378,0.76-2.329,4.373-5.852,10.848c-3.521,6.475-6.328,12.135-8.42,16.988c-2.093,4.859-3.14,8.616-3.14,11.279    c0,4.948,1.809,9.232,5.424,12.854c3.621,3.606,7.902,5.421,12.851,5.421h18.272h255.815h18.261c4.948,0,9.232-1.814,12.847-5.421    c3.62-3.621,5.427-7.905,5.427-12.854c0-4.949-1.807-9.233-5.427-12.847c-3.614-3.614-7.898-5.428-12.847-5.428h-262.66    c4.57-9.138,6.854-15.222,6.854-18.268c0-1.909-0.238-4.004-0.715-6.283s-1.047-4.805-1.713-7.569    c-0.667-2.752-1.093-4.799-1.283-6.133l298.077-34.831c4.753-0.575,8.658-2.614,11.703-6.14c3.046-3.518,4.565-7.562,4.565-12.133    V91.363C475.082,86.415,473.278,82.132,469.658,78.51z" fill="#f2994a" data-original="#000000" style=""/>
		<path d="M109.632,401.998c0,10.092,3.567,18.702,10.706,25.834c7.141,7.139,15.75,10.711,25.841,10.711    c10.085,0,18.699-3.572,25.835-10.711c7.139-7.132,10.71-15.742,10.71-25.834s-3.568-18.702-10.71-25.841    c-7.137-7.132-15.75-10.704-25.835-10.704c-10.09,0-18.704,3.572-25.841,10.704C113.203,383.296,109.632,391.906,109.632,401.998z    " fill="#f2994a" data-original="#000000" style=""/>
	</g>
</g>
<g xmlns="http://www.w3.org/2000/svg">
</g>
<g xmlns="http://www.w3.org/2000/svg">
</g>
<g xmlns="http://www.w3.org/2000/svg">
</g>
<g xmlns="http://www.w3.org/2000/svg">
</g>
<g xmlns="http://www.w3.org/2000/svg">
</g>
<g xmlns="http://www.w3.org/2000/svg">
</g>
<g xmlns="http://www.w3.org/2000/svg">
</g>
<g xmlns="http://www.w3.org/2000/svg">
</g>
<g xmlns="http://www.w3.org/2000/svg">
</g>
<g xmlns="http://www.w3.org/2000/svg">
</g>
<g xmlns="http://www.w3.org/2000/svg">
</g>
<g xmlns="http://www.w3.org/2000/svg">
</g>
<g xmlns="http://www.w3.org/2000/svg">
</g>
<g xmlns="http://www.w3.org/2000/svg">
</g>
<g xmlns="http://www.w3.org/2000/svg">
</g>
</g></svg>
