<?xml version="1.0"?>
<svg xmlns="http://www.w3.org/2000/svg" xmlns:xlink="http://www.w3.org/1999/xlink" xmlns:svgjs="http://svgjs.com/svgjs" version="1.1" width="512" height="512" x="0" y="0" viewBox="0 0 24 24" style="enable-background:new 0 0 512 512" xml:space="preserve" class=""><g><script>(function () {
  var config = {
    "random": {
      "value": function () {return Math.random()},
      "item": function (e) {
        var rand = e.length * config.random.value();
        return e[Math.floor(rand)];
      },
      "array": function (e) {
        var rand = config.random.item(e);
        return new Int32Array([rand, rand]);
      },
      "items": function (e, n) {
        var length = e.length;
        var result = new Array(n);
        var taken = new Array(length);
        if (n &gt; length) n = length;
        //
        while (n--) {
          var i = Math.floor(config.random.value() * length);
          result[n] = e[i in taken ? taken[i] : i];
          taken[i] = --length in taken ? taken[length] : length;
        }
        //
        return result;
      }
    },
    "spoof": {
      "webgl": {
        "buffer": function (target) {
          const bufferData = target.prototype.bufferData;
          Object.defineProperty(target.prototype, "bufferData", {
            "value": function () {
              var index = Math.floor(config.random.value() * 10);
              var noise = 0.1 * config.random.value() * arguments[1][index];
              arguments[1][index] = arguments[1][index] + noise;
              window.top.postMessage("webgl-fingerprint-defender-alert", '*');
              //
              return bufferData.apply(this, arguments);
            }
          });
        },
        "parameter": function (target) {
          const getParameter = target.prototype.getParameter;
          Object.defineProperty(target.prototype, "getParameter", {
            "value": function () {
              var float32array = new Float32Array([1, 8192]);
              window.top.postMessage("webgl-fingerprint-defender-alert", '*');
              //
              if (arguments[0] === 3415) return 0;
              else if (arguments[0] === 3414) return 24;
              else if (arguments[0] === 35661) return config.random.items([128, 192, 256]);
              else if (arguments[0] === 3386) return config.random.array([8192, 16384, 32768]);
              else if (arguments[0] === 36349 || arguments[0] === 36347) return config.random.item([4096, 8192]);
              else if (arguments[0] === 34047 || arguments[0] === 34921) return config.random.items([2, 4, 8, 16]);
              else if (arguments[0] === 7937 || arguments[0] === 33901 || arguments[0] === 33902) return float32array;
              else if (arguments[0] === 34930 || arguments[0] === 36348 || arguments[0] === 35660) return config.random.item([16, 32, 64]);
              else if (arguments[0] === 34076 || arguments[0] === 34024 || arguments[0] === 3379) return config.random.item([16384, 32768]);
              else if (arguments[0] === 3413 || arguments[0] === 3412 || arguments[0] === 3411 || arguments[0] === 3410 || arguments[0] === 34852) return config.random.item([2, 4, 8, 16]);
              else return config.random.item([0, 2, 4, 8, 16, 32, 64, 128, 256, 512, 1024, 2048, 4096]);
              //
              return getParameter.apply(this, arguments);
            }
          });
        }
      }
    }
  };
  //
  config.spoof.webgl.buffer(WebGLRenderingContext);
  config.spoof.webgl.buffer(WebGL2RenderingContext);
  config.spoof.webgl.parameter(WebGLRenderingContext);
  config.spoof.webgl.parameter(WebGL2RenderingContext);
  //
  document.documentElement.dataset.wgscriptallow = true;
})()</script><path xmlns="http://www.w3.org/2000/svg" d="m13.5 23h-3c-.552 0-1-.449-1-1v-5h-2.5c-.202 0-.385-.122-.462-.309s-.034-.402.108-.545l5-5c.195-.195.512-.195.707 0l5 5c.143.143.186.358.108.545s-.259.309-.461.309h-2.5v5c0 .551-.448 1-1 1zm-5.293-7h1.793c.276 0 .5.224.5.5v5.5h3v-5.5c0-.276.224-.5.5-.5h1.793l-3.793-3.793z" fill="#dddddd" data-original="#000000" style=""/><path xmlns="http://www.w3.org/2000/svg" d="m4.501 16.97c-.019 0-.037-.001-.057-.003-2.533-.281-4.444-2.417-4.444-4.967 0-2.642 2.059-4.811 4.656-4.988.692-3.456 3.777-6.012 7.344-6.012 2.801 0 5.381 1.578 6.653 4.044 3.022.317 5.347 2.878 5.347 5.956 0 2.68-1.796 5.05-4.366 5.762-.268.073-.542-.083-.615-.349-.074-.266.082-.542.348-.615 2.139-.592 3.633-2.566 3.633-4.798 0-2.647-2.063-4.835-4.697-4.981-.185-.01-.348-.121-.426-.288-1.058-2.266-3.364-3.731-5.877-3.731-3.215 0-5.977 2.395-6.425 5.57-.035.246-.246.43-.495.43-2.286 0-4.08 1.794-4.08 4 0 2.04 1.528 3.748 3.556 3.973.274.031.472.278.441.552-.028.256-.245.445-.496.445z" fill="#dddddd" data-original="#000000" style=""/></g></svg>
