<svg id="Capa_1" enable-background="new 0 0 512 512" height="512" viewBox="0 0 512 512" width="512" xmlns="http://www.w3.org/2000/svg"><g id="barcode"><path d="m467 121h-422c-8.291 0-15 6.709-15 15v240c0 8.291 6.709 15 15 15h422c8.291 0 15-6.709 15-15v-240c0-8.291-6.709-15-15-15zm-316 195c0 8.291-6.709 15-15 15s-15-6.709-15-15v-120c0-8.291 6.709-15 15-15s15 6.709 15 15zm45 15c-8.284 0-15-6.716-15-15 0-8.286 6.716-15 15-15s15 6.714 15 15c0 8.284-6.716 15-15 15zm15-75c0 8.291-6.709 15-15 15s-15-6.709-15-15v-60c0-8.291 6.709-15 15-15s15 6.709 15 15zm45 75c-8.284 0-15-6.716-15-15 0-8.286 6.716-15 15-15s15 6.714 15 15c0 8.284-6.716 15-15 15zm15-75c0 8.291-6.709 15-15 15s-15-6.709-15-15v-60c0-8.291 6.709-15 15-15s15 6.709 15 15zm45 75c-8.284 0-15-6.716-15-15 0-8.286 6.716-15 15-15s15 6.714 15 15c0 8.284-6.716 15-15 15zm15-75c0 8.291-6.709 15-15 15s-15-6.709-15-15v-60c0-8.291 6.709-15 15-15s15 6.709 15 15zm60 60c0 8.291-6.709 15-15 15s-15-6.709-15-15v-120c0-8.291 6.709-15 15-15s15 6.709 15 15z"/><g><path d="m15 91c-8.291 0-15-6.709-15-15v-30c0-8.291 6.709-15 15-15h60c8.291 0 15 6.709 15 15s-6.709 15-15 15h-45v15c0 8.291-6.709 15-15 15z"/></g><g><path d="m497 91c-8.291 0-15-6.709-15-15v-15h-45c-8.291 0-15-6.709-15-15s6.709-15 15-15h60c8.291 0 15 6.709 15 15v30c0 8.291-6.709 15-15 15z"/></g><g><path d="m497 481h-60c-8.291 0-15-6.709-15-15s6.709-15 15-15h45v-15c0-8.291 6.709-15 15-15s15 6.709 15 15v30c0 8.291-6.709 15-15 15z"/></g><g><path d="m75 481h-60c-8.291 0-15-6.709-15-15v-30c0-8.291 6.709-15 15-15s15 6.709 15 15v15h45c8.291 0 15 6.709 15 15s-6.709 15-15 15z"/></g></g></svg>