<svg width="140" height="135" xmlns="http://www.w3.org/2000/svg" xmlns:xlink="http://www.w3.org/1999/xlink" overflow="hidden"><defs><clipPath id="clip0"><rect x="762" y="322" width="140" height="135"/></clipPath></defs><g clip-path="url(#clip0)" transform="translate(-762 -322)"><path d="M763 390C763 352.997 792.773 323 829.5 323 866.227 323 896 352.997 896 390 896 427.003 866.227 457 829.5 457 792.773 457 763 427.003 763 390Z" fill="#BBF4EE" fill-rule="evenodd"/><path d="M773 395 829.5 368 886 395Z" fill="#794E02" fill-rule="evenodd"/><rect x="773" y="395" width="113" height="50" fill="#794E02"/><path d="M802 352 854 352 871 369 871 364 871 364 871 436 790 436 790 364C790 357.373 795.373 352 802 352Z" fill="#FFFFFF" fill-rule="evenodd"/><path d="M854 351 871 368 859.333 368C856.388 368 854 365.612 854 362.667Z" fill="#D9D9D9" fill-rule="evenodd"/><path d="M800 378C800 371.925 804.925 367 811 367 817.075 367 822 371.925 822 378 822 384.075 817.075 389 811 389 804.925 389 800 384.075 800 378Z" fill="#9BEFE7" fill-rule="evenodd"/><path d="M801 397.5C801 396.119 802.119 395 803.5 395L857.5 395C858.881 395 860 396.119 860 397.5L860 397.5C860 398.881 858.881 400 857.5 400L803.5 400C802.119 400 801 398.881 801 397.5Z" fill="#D9D9D9" fill-rule="evenodd"/><path d="M801 407.5C801 406.119 802.119 405 803.5 405L847.5 405C848.881 405 850 406.119 850 407.5L850 407.5C850 408.881 848.881 410 847.5 410L803.5 410C802.119 410 801 408.881 801 407.5Z" fill="#D9D9D9" fill-rule="evenodd"/><path d="M773 395 829.5 425.5 886 395 886 450.667C886 454.165 883.164 457 879.667 457L779.333 457C775.836 457 773 454.165 773 450.667Z" fill="#FEAF30" fill-rule="evenodd"/><path d="M810.937 415 829.5 425.164 848.063 415 884 455 883.949 455.125C882.807 456.284 881.229 457 879.487 457L779.513 457C777.771 457 776.193 456.284 775.051 455.125L775 455Z" fill="#FF9233" fill-rule="evenodd"/><path d="M850 355.5C850 346.94 856.94 340 865.5 340L885.5 340C894.06 340 901 346.94 901 355.5L901 355.5C901 364.06 894.06 371 885.5 371L865.5 371C856.94 371 850 364.06 850 355.5Z" fill="#FEAF30" fill-rule="evenodd"/><path d="M0 16 0 0 10 16Z" fill="#FEAF30" fill-rule="evenodd" transform="matrix(1 0 0 -1 859 382)"/><path d="M859 356.5C859 354.567 860.567 353 862.5 353 864.433 353 866 354.567 866 356.5 866 358.433 864.433 360 862.5 360 860.567 360 859 358.433 859 356.5Z" fill="#FFFFFF" fill-rule="evenodd"/><path d="M872 356.5C872 354.567 873.567 353 875.5 353 877.433 353 879 354.567 879 356.5 879 358.433 877.433 360 875.5 360 873.567 360 872 358.433 872 356.5Z" fill="#FFFFFF" fill-rule="evenodd"/><path d="M886 356.5C886 354.567 887.567 353 889.5 353 891.433 353 893 354.567 893 356.5 893 358.433 891.433 360 889.5 360 887.567 360 886 358.433 886 356.5Z" fill="#FFFFFF" fill-rule="evenodd"/></g></svg>