<svg width="1508" height="1309" xmlns="http://www.w3.org/2000/svg" xmlns:xlink="http://www.w3.org/1999/xlink" overflow="hidden"><defs><clipPath id="clip0"><rect x="373" y="42" width="1508" height="1309"/></clipPath></defs><g clip-path="url(#clip0)" transform="translate(-373 -42)"><path d="M1076 948.5C1076 726.205 1255.98 546 1478 546 1700.02 546 1880 726.205 1880 948.5 1880 1170.79 1700.02 1351 1478 1351 1255.98 1351 1076 1170.79 1076 948.5Z" fill="#000000" fill-rule="evenodd" fill-opacity="0.101961"/><path d="M374 292.5C374 154.705 485.705 43 623.5 43 761.295 43 873 154.705 873 292.5 873 430.295 761.295 542 623.5 542 485.705 542 374 430.295 374 292.5Z" fill="#000000" fill-rule="evenodd" fill-opacity="0.101961"/><path d="M521 944.5C521 908.878 549.878 880 585.5 880 621.122 880 650 908.878 650 944.5 650 980.122 621.122 1009 585.5 1009 549.878 1009 521 980.122 521 944.5Z" fill="#000000" fill-rule="evenodd" fill-opacity="0.101961"/><path d="M1161 416.5C1161 406.283 1169.51 398 1180 398 1190.49 398 1199 406.283 1199 416.5 1199 426.717 1190.49 435 1180 435 1169.51 435 1161 426.717 1161 416.5Z" fill="#000000" fill-rule="evenodd" fill-opacity="0.101961"/></g></svg>